<?xml version="1.0" encoding="UTF-8" standalone="no"?>
<svg
   xmlns:dc="http://purl.org/dc/elements/1.1/"
   xmlns:cc="http://creativecommons.org/ns#"
   xmlns:rdf="http://www.w3.org/1999/02/22-rdf-syntax-ns#"
   xmlns:svg="http://www.w3.org/2000/svg"
   xmlns="http://www.w3.org/2000/svg"
   xmlns:sodipodi="http://sodipodi.sourceforge.net/DTD/sodipodi-0.dtd"
   xmlns:inkscape="http://www.inkscape.org/namespaces/inkscape"
   width="400"
   height="400"
   viewBox="0 0 400 400"
   version="1.1"
   id="svg23"
   sodipodi:docname="logo.svg"
   inkscape:version="1.0.2-2 (e86c870879, 2021-01-15)">
  <metadata
     id="metadata27">
    <rdf:RDF>
      <cc:Work
         rdf:about="">
        <dc:format>image/svg+xml</dc:format>
        <dc:type
           rdf:resource="http://purl.org/dc/dcmitype/StillImage" />
        <dc:title></dc:title>
      </cc:Work>
    </rdf:RDF>
  </metadata>
  <sodipodi:namedview
     pagecolor="#ffffff"
     bordercolor="#666666"
     borderopacity="1"
     objecttolerance="10"
     gridtolerance="10"
     guidetolerance="10"
     inkscape:pageopacity="0"
     inkscape:pageshadow="2"
     inkscape:window-width="2048"
     inkscape:window-height="1081"
     id="namedview25"
     showgrid="false"
     inkscape:zoom="2.105"
     inkscape:cx="200"
     inkscape:cy="200"
     inkscape:window-x="-8"
     inkscape:window-y="-8"
     inkscape:window-maximized="1"
     inkscape:current-layer="svg23" />
  <defs
     id="defs7">
    <linearGradient
       id="gradient-3"
       x1="0"
       y1="0"
       x2="400"
       y2="0"
       gradientUnits="userSpaceOnUse"
       gradientTransform="matrix(1.0106889,0,0,0.62945368,0,74.109264)">
      <stop
         offset="0%"
         stop-color="rgb(182, 244, 146)"
         id="stop2" />
      <stop
         offset="100%"
         stop-color="rgb(51, 139, 147)"
         id="stop4" />
    </linearGradient>
  </defs>
  <rect
     data-name="background"
     width="101.06889%"
     height="62.945374%"
     fill="url(#gradient-3)"
     id="rect9"
     style="fill:url(#gradient-3);stroke-width:0.79761"
     x="0"
     y="74.109261" />
  <g
     data-name="watermark"
     class="watermark-logodesign"
     stroke="#ffffff"
     transform="translate(40, 280) scale(1.5) rotate(-45)"
     style="opacity:0.040000010281801224;"
     id="g13">
    <path
       fill="#000000"
       d="M19.52,53.48c-10.32,0-17.72-7.64-17.72-17.32c0-10,8.2-17.76,18.32-17.76c10.36,0,17.76,7.48,17.76,17.56c0,6.24-3.56,9.84-7.84,9.84c-2.96,0-4.44-1.56-5.04-3.72c-1.48,2-3.64,3.08-6.16,3.08c-4.84,0-8.52-3.8-8.52-8.96c0-5.2,3.64-9,8.56-9c2.36,0,4.52,0.96,6,3l0-2.52l3.44,0l0,12.48c0,1.68,0.6,2.96,2.24,2.96c2.12,0,4.2-2.52,4.2-7.12c0-8.28-5.76-14.68-14.6-14.68c-8.48,0-15.24,6.44-15.24,14.84c0,8.16,6.24,14.4,14.68,14.4c2.88,0,6.04-0.68,8.2-2.4l0.8,2.88c-2.36,1.68-5.68,2.44-9.08,2.44z M19.36,41.92c3.24,0,5.64-2.4,5.64-5.76c0-3.32-2.36-5.68-5.64-5.68c-3.2,0-5.48,2.36-5.48,5.68s2.32,5.76,5.48,5.76z M46.84,42.4l14.72,0l0,4l-19.08,0l0-28l4.36,0l0,24z M74.8,46.92c-6.16,0-10.68-4.56-10.68-10.6c0-6,4.52-10.56,10.68-10.56s10.68,4.56,10.68,10.56c0,6.04-4.52,10.6-10.68,10.6z M74.8,43.12c3.84,0,6.6-2.92,6.6-6.76c0-3.88-2.76-6.8-6.6-6.8s-6.6,2.92-6.6,6.8c0,3.84,2.76,6.76,6.6,6.76z M105.68,26.28l4.2,0l0,19.4c0,5.6-4.08,9.64-10.2,9.64c-4.84,0-7.92-2.24-9.6-5.24l3.68-1.36c1.2,2,3.12,3.08,6,3.08c3.84,0,5.88-2.64,5.92-6.08l0-2.96c-1.56,2.12-4,3.4-7.08,3.4c-5.84,0-10.04-4.44-10.04-10.2c0-5.96,4.2-10.2,10.04-10.2c3.08,0,5.52,1.28,7.08,3.36l0-2.84z M99.24,42.4c3.72,0,6.56-2.72,6.56-6.44s-2.84-6.4-6.56-6.4c-3.88,0-6.56,2.68-6.56,6.4s2.68,6.44,6.56,6.44z M124.92,46.92c-6.16,0-10.68-4.56-10.68-10.6c0-6,4.52-10.56,10.68-10.56s10.68,4.56,10.68,10.56c0,6.04-4.52,10.6-10.68,10.6z M124.92,43.12c3.84,0,6.6-2.92,6.6-6.76c0-3.88-2.76-6.8-6.6-6.8s-6.6,2.92-6.6,6.8c0,3.84,2.76,6.76,6.6,6.76z M141.88,46.68c-1.56,0-2.76-1.2-2.76-2.72c0-1.48,1.2-2.68,2.76-2.68s2.76,1.2,2.76,2.68c0,1.52-1.2,2.72-2.76,2.72z M158.2,46.92c-5.68,0-10-4.52-10-10.6c0-6.04,4.32-10.56,10-10.56c3.24,0,5.72,1.4,7.24,3.56l0-3.04l4.16,0l0,20.12l-4.16,0l0-3.04c-1.52,2.16-4,3.56-7.24,3.56z M158.88,43.16c3.68,0,6.64-2.88,6.64-6.84c0-3.92-2.96-6.8-6.64-6.8c-3.84,0-6.56,2.84-6.56,6.8s2.72,6.84,6.56,6.84z M186.6,25.76c5.68,0,10.04,4.52,10.04,10.56c0,6.08-4.36,10.6-10.04,10.6c-3.2,0-5.68-1.4-7.2-3.56l0,11.44l-4.2,0l0-28.52l4.2,0l0,3.04c1.52-2.16,4-3.56,7.2-3.56z M185.92,43.16c3.84,0,6.56-2.88,6.56-6.84s-2.72-6.8-6.56-6.8c-3.68,0-6.64,2.88-6.64,6.8c0,3.96,2.96,6.84,6.64,6.84z M212.36,25.76c5.68,0,10.04,4.52,10.04,10.56c0,6.08-4.36,10.6-10.04,10.6c-3.2,0-5.68-1.4-7.2-3.56l0,11.44l-4.2,0l0-28.52l4.2,0l0,3.04c1.52-2.16,4-3.56,7.2-3.56z M211.68,43.16c3.84,0,6.56-2.88,6.56-6.84s-2.72-6.8-6.56-6.8c-3.68,0-6.64,2.88-6.64,6.8c0,3.96,2.96,6.84,6.64,6.84z"
       id="path11" />
  </g>
  <g
     data-name="icon"
     fill="#ffffff"
     data="id:8213716"
     transform="translate(12.872875052915647,153.1048111020936) scale(0.9380704902109416)"
     id="g17">
    <path
       d="m90.895 68.629 3.625-11.172h0.015625c2.4531 0 4.4492-2.0078 4.4492-4.4766s-1.9961-4.4766-4.4492-4.4766h-15.293c-0.86328-1.2695-2.3125-2.0547-3.8594-2.0547-0.80469 0-1.5938 0.21094-2.2969 0.61719-0.62891 0.36719-1.125 0.87109-1.5078 1.4375h-43.152c-0.38281-0.57031-0.88672-1.0781-1.5195-1.4492-0.69922-0.39453-1.4922-0.60547-2.2969-0.60547-1.5586 0-3.0039 0.78516-3.8438 2.0547h-15.293c-2.4688 0-4.4766 2.0078-4.4766 4.4766s2.0078 4.4766 4.4766 4.4766h0.015625l3.625 11.172-7.4883 12.961c-0.625 1.0664-0.79297 2.3125-0.47266 3.5156 0.32031 1.2031 1.082 2.207 2.1445 2.8164 0.71094 0.41406 1.5195 0.63672 2.3398 0.63672 1.6484 0 3.1875-0.88281 4.0234-2.3125l3.3125-5.7344 4.9922 15.383c0.62891 1.8789 2.3086 3.0938 4.2852 3.0938h55.504c1.9727 0 3.6875-1.2539 4.2617-3.1055l5-15.402 3.3203 5.7539c0.8125 1.4336 2.3477 2.3242 4.0039 2.3242 0.82031 0 1.6289-0.21875 2.3203-0.625 1.0781-0.60938 1.8477-1.6055 2.1719-2.8125 0.32031-1.1914 0.16406-2.4414-0.44922-3.5234zm-2.0195-3.4961-2.3711-4.1055 1.1562-3.5703h3.707zm-4.4375-7.6758h0.066406l-0.023437 0.074219zm11.547-4.4766c0 0.8125-0.64844 1.4766-1.4492 1.4766h-11.828l-1.707-2.9531h13.535c0.80078 0 1.4492 0.66016 1.4492 1.4766zm-69.707 4.4766h47.449l6.8945 11.949-6.2031 19.047c-0.19922 0.64453-0.75 1.043-1.4297 1.043l-46.004-0.003906c-0.66797 0-1.2188-0.41016-1.4375-1.0586l-6.168-19.027zm1.7344-3 0.61719-1.0664c0.34375-0.59766 0.52734-1.2383 0.58203-1.8867h41.594c0.058593 0.64844 0.23828 1.2891 0.58203 1.8867l0.61719 1.0664-43.992-0.003906zm-12.488 3.0742-0.023438-0.074219h0.066406zm-11.527-4.5508c0-0.8125 0.66406-1.4766 1.4766-1.4766h13.535l-1.707 2.9531-11.828-0.003906c-0.81641 0.003906-1.4766-0.66016-1.4766-1.4727zm4.6445 4.4766h3.707l1.1562 3.5703-2.3711 4.1055zm-1.5742 27.277c-0.44141 0.75781-1.4766 1.0508-2.2656 0.59375-0.37109-0.21484-0.64062-0.56641-0.75391-0.99219-0.11328-0.42188-0.054687-0.85938 0.16797-1.2383l15.195-26.301c0.003906-0.003906 0.003906-0.007813 0.007813-0.011719l3.7695-6.5234c0.28516-0.5 0.82812-0.8125 1.418-0.8125 0.28516 0 0.57031 0.074219 0.80078 0.20703 0.78906 0.46094 1.0664 1.4648 0.62109 2.2344l-1.8398 3.1914c-0.066406 0.089844-0.125 0.1875-0.17188 0.29297l-7.5352 13.059c-0.027344 0.046875-0.058594 0.09375-0.082031 0.14453l-4.2227 7.3164c-0.078125 0.10156-0.13672 0.21094-0.1875 0.32422zm72.09 10.234c-0.19531 0.625-0.73047 1.0156-1.4023 1.0156h-55.5c-0.69531 0-1.2188-0.37891-1.4375-1.0312l-5.8242-17.941 2.3711-4.1055 5.3359 16.461c0.62109 1.8672 2.3438 3.1211 4.2852 3.1211h46.008c1.9805 0 3.707-1.2656 4.2891-3.1328l5.3594-16.461 2.3555 4.082zm16.785-10.629c-0.11328 0.42188-0.38281 0.76953-0.77344 0.99219-0.75781 0.44141-1.7969 0.16797-2.2227-0.58984l-9.332-16.164c-0.023437-0.050781-0.054687-0.097656-0.085937-0.14844l-9.5469-16.539c-0.44531-0.77344-0.16797-1.7734 0.61328-2.2305 0.23828-0.13672 0.51172-0.21094 0.78906-0.21094 0.59375 0 1.1484 0.31641 1.4414 0.82422l3.7656 6.5195 0.003906 0.003906 15.188 26.289c0.21875 0.38281 0.27344 0.82812 0.16016 1.2539zm-65.27-0.23828c2.4219 0 4.3906-1.9688 4.3906-4.3906v-14.742c0-2.4062-1.9688-4.3633-4.3906-4.3633s-4.3906 1.957-4.3906 4.3633v14.738c0 2.4258 1.9688 4.3945 4.3906 4.3945zm-1.3906-19.133c0-0.73828 0.63672-1.3633 1.3906-1.3633s1.3906 0.625 1.3906 1.3633v14.738c0 0.75391-0.63672 1.3906-1.3906 1.3906s-1.3906-0.63672-1.3906-1.3906zm14.289 19.133c2.4062 0 4.3633-1.9688 4.3633-4.3906v-14.742c0-2.4062-1.957-4.3633-4.3633-4.3633-2.4219 0-4.3906 1.957-4.3906 4.3633v14.738c-0.003907 2.4258 1.9688 4.3945 4.3906 4.3945zm-1.3945-19.133c0-0.73828 0.63672-1.3633 1.3906-1.3633 0.72656 0 1.3633 0.63672 1.3633 1.3633v14.738c0 0.75391-0.625 1.3906-1.3633 1.3906-0.75391 0-1.3906-0.63672-1.3906-1.3906zm14.262 19.133c2.4219 0 4.3906-1.9688 4.3906-4.3906v-14.742c0-2.4062-1.9688-4.3633-4.3906-4.3633s-4.3906 1.957-4.3906 4.3633v14.738c0 2.4258 1.9688 4.3945 4.3906 4.3945zm-1.3906-19.133c0-0.73828 0.63672-1.3633 1.3906-1.3633s1.3906 0.625 1.3906 1.3633v14.738c0 0.75391-0.63672 1.3906-1.3906 1.3906s-1.3906-0.63672-1.3906-1.3906zm14.262 19.133c2.4219 0 4.3906-1.9688 4.3906-4.3906v-14.742c0-2.4062-1.9688-4.3633-4.3906-4.3633-2.4062 0-4.3633 1.957-4.3633 4.3633v14.738c0 2.4258 1.957 4.3945 4.3633 4.3945zm-1.3633-19.133c0-0.72656 0.63672-1.3633 1.3633-1.3633 0.75391 0 1.3906 0.625 1.3906 1.3633v14.738c0 0.75391-0.63672 1.3906-1.3906 1.3906-0.73828 0-1.3633-0.63672-1.3633-1.3906zm-25.625-19.477c0.82813 0 1.5-0.67188 1.5-1.5v-1.4219l18.629 0.003907v1.4219c0 0.82812 0.67188 1.5 1.5 1.5s1.5-0.67188 1.5-1.5v-13.949c0-0.82812-0.67188-1.5-1.5-1.5h-21.629c-0.82812 0-1.5 0.67188-1.5 1.5v13.949c0 0.82422 0.67188 1.4961 1.5 1.4961zm1.5-13.945h18.629v8.0273h-18.629zm13.664 4.0273c0 0.82812-0.67188 1.5-1.5 1.5h-5.668c-0.82812 0-1.5-0.67188-1.5-1.5s0.67188-1.5 1.5-1.5h5.668c0.82812 0 1.5 0.67188 1.5 1.5zm26.281-34.582c-8.5352 0-15.219 14.941-15.219 34.016 0 3.1719 0.17578 6.2578 0.51953 9.1641 0.097656 0.82031 0.83984 1.4062 1.668 1.3125 0.82031-0.097656 1.4102-0.84375 1.3125-1.668-0.33203-2.7891-0.5-5.7539-0.5-8.8086 0-18.551 6.3164-31.016 12.219-31.016 3.9453 0 8.0742 5.5508 10.387 14.746h-7.9219c-2.2969 0-4.1641 1.8555-4.1641 4.1367 0 2.2969 1.8672 4.1641 4.1641 4.1641h9.3711c0.18359 1.7227 0.30469 3.5234 0.36719 5.3906h-16.43c-2.2812 0-4.1367 1.8555-4.1367 4.1367 0 2.2969 1.8555 4.1641 4.1367 4.1641h16.227c-0.089844 1.1289-0.19922 2.2695-0.33984 3.418-0.10156 0.82031 0.48047 1.5703 1.3047 1.6719 0.0625 0.007813 0.125 0.011719 0.1875 0.011719 0.74609 0 1.3945-0.55469 1.4883-1.3164 0.40234-3.2539 0.60547-6.4531 0.60547-9.5117 0-19.07-6.6992-34.012-15.246-34.012zm2.4648 23.047c-0.64062 0-1.1641-0.52344-1.1641-1.1641 0-0.625 0.52344-1.1367 1.1641-1.1367h8.5859c0.14453 0.75 0.27734 1.5156 0.39844 2.3008zm-6.6914 13.691c-0.625 0-1.1367-0.52344-1.1367-1.1641 0-0.61719 0.51953-1.1367 1.1367-1.1367h16.465c-0.003906 0.75781-0.023437 1.5234-0.054687 2.3008zm-72.961 7.7617c0.82812 0 1.5-0.67188 1.5-1.5v-12.359c0-5.1016 3.6367-9.5 8.6484-10.461 0.70703-0.13672 1.2188-0.75391 1.2188-1.4727l-0.003906-9.8945h6.9492v9.8945c0 0.71875 0.51172 1.3359 1.2148 1.4727 5.0117 0.96875 8.6484 5.3672 8.6484 10.461v0.027344c0 0.82812 0.67188 1.4844 1.5 1.4844s1.5-0.6875 1.5-1.5156c0-6.1094-4.0781-11.438-9.8633-13.113v-8.7109h0.73828c0.82812 0 1.5-0.67188 1.5-1.5v-5.8125c0-0.82813-0.67188-1.5-1.5-1.5h-14.426c-0.82812 0-1.5 0.67187-1.5 1.5v5.8125c0 0.82812 0.67188 1.5 1.5 1.5h0.73828v8.7148c-5.7852 1.6719-9.8633 7-9.8633 13.113v12.359c0 0.82812 0.66797 1.5 1.5 1.5zm9.125-41.5h11.426v2.8125h-11.426l-0.003906-2.8125zm20.621 32.23c1.4375 0.37891 2.6406 1.3008 3.3867 2.5977 0.74219 1.2891 0.93359 2.7852 0.53906 4.2148l-0.36719 1.3555c-0.17969 0.66797-0.78516 1.1094-1.4453 1.1094-0.12891 0-0.26172-0.015625-0.39453-0.054688-0.80078-0.21484-1.2734-1.0391-1.0547-1.8398l0.36719-1.3594c0.17969-0.65234 0.09375-1.3359-0.24609-1.9258-0.31641-0.55078-0.80859-0.95312-1.3984-1.1484-0.21094-0.007813-0.41797-0.027344-0.625-0.046875-0.30859-0.027344-0.59766-0.054688-0.76563-0.015625-3.8633 0.90625-7.3203 0.90625-11.191-0.003906-0.40234-0.09375-0.83203-0.085938-1.2344 0.019531-0.65234 0.17188-1.2031 0.59375-1.5469 1.1914-0.33984 0.58984-0.42969 1.2734-0.25 1.918l0.34766 1.3984c0.19922 0.80469-0.28906 1.6172-1.0938 1.8164-0.80469 0.20312-1.6172-0.28906-1.8164-1.0938l-0.33984-1.3594c-0.38672-1.3906-0.19141-2.8867 0.55078-4.1758 0.74609-1.2969 1.9492-2.2188 3.3867-2.5977 0.86719-0.22656 1.7891-0.24219 2.6719-0.039062 1.2539 0.29297 2.457 0.47656 3.6445 0.55469 0.17578-2.1758-0.71875-4.3555-2.4648-5.7852-0.64062-0.52344-0.73438-1.4688-0.21094-2.1094 0.52344-0.64062 1.4688-0.73828 2.1094-0.21094 2.4375 1.9922 3.7148 5.0156 3.5586 8.0664 1.0469-0.089844 2.1016-0.25781 3.1992-0.51172 0.64062-0.14453 1.2109-0.09375 1.7148-0.046875 0.32031 0.023437 0.65234 0 0.96875 0.082031zm4.8633-19.574c-0.68359-3.7383 0.71484-5.2891 1.6094-5.8828 0.41797-0.28125 1.0977-0.59766 2.0547-0.60938-1.4609-3.9219-1.1914-7.1758 0.86328-8.543 1.8438-1.2422 4.5664-0.57031 7.4336 1.7891 2.8438-2.3633 5.5625-3.0391 7.418-1.7852 2.0664 1.3789 2.3398 4.625 0.875 8.5312 0.89844 0.007812 1.582 0.29297 2.0742 0.625 0.83984 0.55859 1.418 1.4766 1.6523 2.6523 0.55078 2.7305-0.73047 6.8555-3.3438 10.762-0.13672 0.22266-0.33203 0.48438-0.52734 0.74219-0.49609 0.66406-1.4375 0.79687-2.1016 0.30078-0.66406-0.49609-0.79687-1.4375-0.30078-2.0977 0.14453-0.19531 0.28906-0.38281 0.41016-0.57422 2.457-3.6797 3.2305-7 2.9219-8.543-0.054687-0.26172-0.16016-0.60547-0.37891-0.75-0.3125-0.21094-1.1289-0.17578-2.4453 0.58594-0.58594 0.33984-1.3281 0.24219-1.8086-0.23047-0.48047-0.47656-0.58203-1.2148-0.25-1.8047 2.3906-4.2266 2.2812-7.2188 1.5508-7.707-0.55078-0.36719-2.3672 0.12891-4.7031 2.3828-0.57812 0.55859-1.4961 0.5625-2.0781 0.007812-2.3633-2.2578-4.1875-2.7578-4.7305-2.3906-0.72656 0.48438-0.82422 3.4727 1.5508 7.7188 0.33203 0.58984 0.22266 1.332-0.26172 1.8047-0.48438 0.47266-1.2266 0.5625-1.8125 0.21875-1.2031-0.71094-2.0703-0.80859-2.3945-0.58984-0.38281 0.25391-0.625 1.2266-0.32812 2.8477 0.35156 1.9141 1.375 4.2539 2.8086 6.418 0.046876 0.058594 0.13672 0.1875 0.22656 0.31641 0.066406 0.097656 0.13281 0.19531 0.20703 0.28906 0.49609 0.66016 0.36328 1.6016-0.29688 2.1016-0.26953 0.20312-0.58594 0.30078-0.90234 0.30078-0.45313 0-0.90625-0.20703-1.1992-0.59766-0.097657-0.13281-0.19141-0.26172-0.28125-0.39453-0.066407-0.097657-0.13281-0.19141-0.20312-0.28516-1.7266-2.5977-2.8828-5.2734-3.3086-7.6094zm10.688 7.3789 0.019531-2.6992-4.8281-2.793c-0.71875-0.41406-0.96094-1.332-0.54688-2.0508 0.41406-0.71484 1.332-0.96094 2.0508-0.54688l3.3516 1.9375 0.066406-9.0977c0.007813-0.82422 0.67578-1.4883 1.5-1.4883h0.011719c0.82812 0.007813 1.4961 0.68359 1.4883 1.5117l-0.066406 9.0508 3.2852-1.9102c0.71484-0.41406 1.6328-0.17188 2.0508 0.54297 0.41797 0.71484 0.17188 1.6328-0.54297 2.0508l-4.8164 2.8008-0.019532 2.7148c-0.007812 0.82422-0.67578 1.4883-1.5 1.4883h-0.011718c-0.83203-0.007812-1.4961-0.68359-1.4922-1.5117z"
       id="path15" />
  </g>
  <g
     data-name="business_name"
     fill="#ffffff"
     data="id:223"
     transform="translate(130.8035467864947,65.53687620550281) scale(3.5577115438147136)"
     id="g21">
    <path
       d="M7.4,44.84c0,2.12-3.4,3.64-3.2,1.88c0.12-1.44,0.36-5.28,0.52-9c-0.28,0.72-0.68,1.36-1.12,1.84c-1.08,1.08-3.04,0.08-3.4-1.52c-0.36-1.64-0.16-5.52-0.12-8.48c0.08-1.88,3.28-1.8,3.2-0.64c-0.2,3.4-0.84,8.48-0.24,8.72c0.92,0.28,1.96-5.72,2-6.8c0.64-0.32,0.72,0.04,0.88,0.88c0.12,0.4-0.12,3.6-1.2,6c0.16-2.92,0.28-5.76,0.32-7.32c0.04-1.28,3.08-1.4,2.92-0.08c-0.4,3.44-0.56,13.08-0.56,14.52z M9.88,30.68c0.04-1.84,3.2-1.76,3.12-0.6c-0.16,3.36-1.16,8-0.56,8.2c0.8,0.28,2.12-5.28,2.72-7.04c0.16-1.6,3.12-0.48,2.96,0.44c-0.4,1.96-0.88,6.32,0.04,6.32c0.6,0,1.96-3.92,2.2-5.04c0.24-1.04,1.76-0.68,1.44,0.28c-0.24,0.84-1.36,5.32-3.32,6.52c-1.16,0.72-3.12-0.2-3.4-2c-0.08-0.4-0.12-0.88-0.12-1.36c-0.48,1.48-1.12,2.92-1.96,3.76c-1.08,1.16-3.04,0.16-3.36-1.44c-0.36-1.64,0.12-5.04,0.24-8.04z M20.48,30.52c0.44-2.32,3.68-2.72,3.4-1.48c-0.32,1.48-0.88,5.56-0.84,6.68c0.4-1.48,1.36-3.4,1.96-4.16c0.8-1.12,3.4-1.2,2.88,0.24c-0.12,0.32-0.24,1.32-0.32,2.4c0.68-1.52,2.24-3.76,2.72-4.44c0.8-1.12,3.28-1.4,3.12,0.2c-0.08,1.08-1.48,7.92-0.92,7.92c0.68,0,2.24-3.48,2.64-4.88c0.28-0.92,1.6-0.72,1.36,0.28c-0.36,1.44-2.32,6.12-4.36,6.48c-3.36,0.68-2.24-5.76-1.84-6.96c-0.52,0.24-2.4,4.16-2.68,4.92l0-0.04c-0.16,0.64-1.96,1.84-2.28,0.8c-0.36-1.12-0.08-4-0.2-4.32c-0.48,0.24-1.48,3.8-1.68,5.12c-0.16,1.36-3,1.48-2.88-0.12c0.08-1.84-0.44-6.48-0.08-8.64z M35.28,31.04c0.36-2.12,3.4-2.08,3.2-0.52c-0.24,1.52-0.8,3.88-0.68,5c0.4-1.44,1.04-2.6,1.6-3.4c0.84-1.08,3.44-1.16,2.92,0.28c-0.36,0.96-0.48,4.6,0.04,4.6c0.68,0,2.24-2.64,2.68-4.04c0.24-0.92,1.56-0.68,1.32,0.28c-0.32,1.44-2.52,5.72-4.32,5.72c-3.04,0-2.28-3.92-2.48-4.48c-0.56,0.24-1.24,2.88-1.4,4.2c-0.16,1.36-3,1.48-2.92-0.12c0.12-1.8-0.36-5.44,0.04-7.52z M45.16,30.68c0.04-1.84,3.2-1.76,3.12-0.6c-0.16,3.36-1.16,8-0.56,8.2c0.8,0.28,2.12-5.28,2.72-7.04c0.16-1.6,3.12-0.48,2.96,0.44c-0.4,1.96-0.88,6.32,0.04,6.32c0.6,0,1.96-3.92,2.2-5.04c0.24-1.04,1.76-0.68,1.44,0.28c-0.24,0.84-1.36,5.32-3.32,6.52c-1.16,0.72-3.12-0.2-3.4-2c-0.08-0.4-0.12-0.88-0.12-1.36c-0.48,1.48-1.12,2.92-1.96,3.76c-1.08,1.16-3.04,0.16-3.36-1.44c-0.36-1.64,0.12-5.04,0.24-8.04z M55.76,30.52c0.44-2.32,3.68-2.72,3.4-1.48c-0.32,1.48-0.88,5.56-0.84,6.68c0.4-1.48,1.36-3.4,1.96-4.16c0.8-1.12,3.4-1.2,2.88,0.24c-0.12,0.32-0.24,1.32-0.32,2.4c0.68-1.52,2.24-3.76,2.72-4.44c0.8-1.12,3.28-1.4,3.12,0.2c-0.08,1.08-1.48,7.92-0.92,7.92c0.68,0,2.24-3.48,2.64-4.88c0.28-0.92,1.6-0.72,1.36,0.28c-0.36,1.44-2.32,6.12-4.36,6.48c-3.36,0.68-2.24-5.76-1.84-6.96c-0.52,0.24-2.4,4.16-2.68,4.92l0-0.04c-0.16,0.64-1.96,1.84-2.28,0.8c-0.36-1.12-0.08-4-0.2-4.32c-0.48,0.24-1.48,3.8-1.68,5.12c-0.16,1.36-3,1.48-2.88-0.12c0.08-1.84-0.44-6.48-0.08-8.64z"
       id="path19" />
  </g>
</svg>
